<?xml version="1.0" encoding="UTF-8" standalone="no"?>
<!DOCTYPE svg PUBLIC "-//W3C//DTD SVG 1.1//EN"
 "http://www.w3.org/Graphics/SVG/1.1/DTD/svg11.dtd">
<!-- Generated by graphviz version 2.49.3 (0)
 -->
<!-- Title: calligraphy Pages: 1 -->
<svg width="1182pt" height="220pt"
 viewBox="0.00 0.00 1182.00 220.00" xmlns="http://www.w3.org/2000/svg" xmlns:xlink="http://www.w3.org/1999/xlink">
<g id="graph0" class="graph" transform="scale(1 1) rotate(0) translate(4 216)">
<title>calligraphy</title>
<polygon fill="white" stroke="transparent" points="-4,4 -4,-216 1178,-216 1178,4 -4,4"/>
<g id="clust1" class="cluster">
<title>cluster_0_0</title>
</g>
<g id="clust2" class="cluster">
<title>cluster_1_0</title>
</g>
<g id="clust3" class="cluster">
<title>cluster_1_1</title>
</g>
<g id="clust4" class="cluster">
<title>cluster_2_0</title>
</g>
<g id="clust5" class="cluster">
<title>cluster_2_1</title>
</g>
<g id="clust6" class="cluster">
<title>cluster_3_0</title>
</g>
<g id="clust7" class="cluster">
<title>cluster_4_0</title>
</g>
<g id="clust8" class="cluster">
<title>cluster_5_0</title>
</g>
<g id="clust9" class="cluster">
<title>cluster_5_1</title>
</g>
<g id="clust10" class="cluster">
<title>cluster_5_2</title>
</g>
<g id="clust11" class="cluster">
<title>cluster_6_0</title>
</g>
<g id="clust12" class="cluster">
<title>cluster_7_0</title>
</g>
<g id="clust13" class="cluster">
<title>cluster_8_0</title>
</g>
<g id="clust14" class="cluster">
<title>cluster_9_0</title>
</g>
<g id="clust15" class="cluster">
<title>cluster_10_0</title>
</g>
<g id="clust16" class="cluster">
<title>cluster_11_0</title>
</g>
<g id="clust17" class="cluster">
<title>cluster_12_0</title>
</g>
<!-- 29&#45;&gt;3 -->
<g id="edge2" class="edge">
<title>29&#45;&gt;3</title>
<path fill="none" stroke="black" d="M304,-153.08C304,-143.53 304,-132.75 304,-124.02"/>
<polygon fill="black" stroke="black" points="300.5,-153.17 304,-163.17 307.5,-153.17 300.5,-153.17"/>
</g>
<!-- 32&#45;&gt;6 -->
<g id="edge4" class="edge">
<title>32&#45;&gt;6</title>
<path fill="none" stroke="black" d="M568,-153.08C568,-143.53 568,-132.75 568,-124.02"/>
<polygon fill="black" stroke="black" points="564.5,-153.17 568,-163.17 571.5,-153.17 564.5,-153.17"/>
</g>
<!-- 63&#45;&gt;0 -->
<g id="edge1" class="edge">
<title>63&#45;&gt;0</title>
<path fill="none" stroke="black" d="M86.27,-153.48C83.01,-143.55 79.29,-132.24 76.34,-123.26"/>
<polygon fill="black" stroke="black" points="83.01,-154.76 89.46,-163.17 89.66,-152.58 83.01,-154.76"/>
</g>
<!-- 63&#45;&gt;58 -->
<g id="edge6" class="edge">
<title>63&#45;&gt;58</title>
<path fill="none" stroke="black" d="M118.25,-156.55C133.16,-143.97 151.69,-128.34 163.91,-118.04"/>
<polygon fill="black" stroke="black" points="115.79,-154.05 110.4,-163.17 120.3,-159.4 115.79,-154.05"/>
</g>
<!-- 70&#45;&gt;3 -->
<g id="edge3" class="edge">
<title>70&#45;&gt;3</title>
<path fill="none" stroke="black" d="M403.75,-158.72C380.42,-146.62 350.36,-131.04 329.37,-120.15"/>
<polygon fill="black" stroke="black" points="402.16,-161.84 412.65,-163.34 405.38,-155.63 402.16,-161.84"/>
</g>
<!-- 70&#45;&gt;6 -->
<g id="edge5" class="edge">
<title>70&#45;&gt;6</title>
<path fill="none" stroke="black" d="M473.04,-158.53C495.44,-146.37 524.22,-130.76 544.19,-119.92"/>
<polygon fill="black" stroke="black" points="471.3,-155.49 464.18,-163.34 474.64,-161.64 471.3,-155.49"/>
</g>
<!-- 70&#45;&gt;79 -->
<g id="edge7" class="edge">
<title>70&#45;&gt;79</title>
<path fill="none" stroke="black" d="M439,-153.08C439,-143.53 439,-132.75 439,-124.02"/>
<polygon fill="black" stroke="black" points="435.5,-153.17 439,-163.17 442.5,-153.17 435.5,-153.17"/>
</g>
<!-- 79&#45;&gt;91 -->
<g id="edge8" class="edge">
<title>79&#45;&gt;91</title>
<path fill="none" stroke="black" d="M439,-81.08C439,-71.53 439,-60.75 439,-52.02"/>
<polygon fill="black" stroke="black" points="435.5,-81.17 439,-91.17 442.5,-81.17 435.5,-81.17"/>
</g>
<!-- 98&#45;&gt;103 -->
<g id="edge9" class="edge">
<title>98&#45;&gt;103</title>
<path fill="none" stroke="black" d="M923,-153.08C923,-143.53 923,-132.75 923,-124.02"/>
<polygon fill="black" stroke="black" points="919.5,-153.17 923,-163.17 926.5,-153.17 919.5,-153.17"/>
</g>
<!-- 119&#45;&gt;131 -->
<g id="edge10" class="edge">
<title>119&#45;&gt;131</title>
<path fill="none" stroke="black" d="M1126,-153.08C1126,-143.53 1126,-132.75 1126,-124.02"/>
<polygon fill="black" stroke="black" points="1122.5,-153.17 1126,-163.17 1129.5,-153.17 1122.5,-153.17"/>
</g>
<!-- 0 -->
<g id="node1" class="node">
<title>0</title>
<polygon fill="#ffffff" fill-opacity="0.811765" stroke="black" points="125.76,-111.56 71,-124 16.24,-111.56 16.29,-91.44 125.71,-91.44 125.76,-111.56"/>
<text text-anchor="middle" x="71" y="-102.3" font-family="Times,serif" font-size="14.00">Groupoid</text>
</g>
<!-- 3 -->
<g id="node2" class="node">
<title>3</title>
<polygon fill="#ffffff" fill-opacity="0.811765" stroke="black" points="380.14,-111.56 304,-124 227.86,-111.56 227.93,-91.44 380.07,-91.44 380.14,-111.56"/>
<text text-anchor="middle" x="304" y="-102.3" font-family="Times,serif" font-size="14.00">Bitraversable1</text>
</g>
<!-- 6 -->
<g id="node3" class="node">
<title>6</title>
<polygon fill="#ffffff" fill-opacity="0.811765" stroke="black" points="637.79,-111.56 568,-124 498.21,-111.56 498.28,-91.44 637.72,-91.44 637.79,-111.56"/>
<text text-anchor="middle" x="568" y="-102.3" font-family="Times,serif" font-size="14.00">Traversable1</text>
</g>
<!-- 29 -->
<g id="node4" class="node">
<title>29</title>
<polygon fill="#ffffff" fill-opacity="0.811765" stroke="black" points="368.04,-183.56 304,-196 239.96,-183.56 240.02,-163.44 367.98,-163.44 368.04,-183.56"/>
<text text-anchor="middle" x="304" y="-174.3" font-family="Times,serif" font-size="14.00">Bifoldable1</text>
</g>
<!-- 32 -->
<g id="node5" class="node">
<title>32</title>
<polygon fill="#ffffff" fill-opacity="0.811765" stroke="black" points="625.08,-183.56 568,-196 510.92,-183.56 510.97,-163.44 625.03,-163.44 625.08,-183.56"/>
<text text-anchor="middle" x="568" y="-174.3" font-family="Times,serif" font-size="14.00">Foldable1</text>
</g>
<!-- 58 -->
<g id="node6" class="node">
<title>58</title>
<polygon fill="#ffffff" fill-opacity="0.811765" stroke="black" points="204,-111.56 177,-124 150,-111.56 150.03,-91.44 203.97,-91.44 204,-111.56"/>
<text text-anchor="middle" x="177" y="-102.3" font-family="Times,serif" font-size="14.00">Ob</text>
</g>
<!-- 63 -->
<g id="node7" class="node">
<title>63</title>
<polygon fill="#ffffff" fill-opacity="0.811765" stroke="black" points="169.53,-183.56 94,-196 18.47,-183.56 18.54,-163.44 169.46,-163.44 169.53,-183.56"/>
<text text-anchor="middle" x="94" y="-174.3" font-family="Times,serif" font-size="14.00">Semigroupoid</text>
</g>
<!-- 70 -->
<g id="node8" class="node">
<title>70</title>
<polygon fill="#ffffff" fill-opacity="0.811765" stroke="black" points="479.34,-183.56 439,-196 398.66,-183.56 398.7,-163.44 479.3,-163.44 479.34,-183.56"/>
<text text-anchor="middle" x="439" y="-174.3" font-family="Times,serif" font-size="14.00">Apply</text>
</g>
<!-- 75 -->
<g id="node9" class="node">
<title>75</title>
<polygon fill="#ffffff" fill-opacity="0.811765" stroke="black" points="743.3,-183.56 696,-196 648.7,-183.56 648.75,-163.44 743.25,-163.44 743.3,-183.56"/>
<text text-anchor="middle" x="696" y="-174.3" font-family="Times,serif" font-size="14.00">Biapply</text>
</g>
<!-- 79 -->
<g id="node10" class="node">
<title>79</title>
<polygon fill="#ffffff" fill-opacity="0.811765" stroke="black" points="473.59,-111.56 439,-124 404.41,-111.56 404.44,-91.44 473.56,-91.44 473.59,-111.56"/>
<text text-anchor="middle" x="439" y="-102.3" font-family="Times,serif" font-size="14.00">Bind</text>
</g>
<!-- 91 -->
<g id="node11" class="node">
<title>91</title>
<polygon fill="#ffffff" fill-opacity="0.811765" stroke="black" points="498.4,-39.56 439,-52 379.6,-39.56 379.66,-19.44 498.34,-19.44 498.4,-39.56"/>
<text text-anchor="middle" x="439" y="-30.3" font-family="Times,serif" font-size="14.00">BindTrans</text>
</g>
<!-- 93 -->
<g id="node12" class="node">
<title>93</title>
<polygon fill="#ffffff" fill-opacity="0.811765" stroke="black" points="855.37,-183.56 811,-196 766.63,-183.56 766.67,-163.44 855.33,-163.44 855.37,-183.56"/>
<text text-anchor="middle" x="811" y="-174.3" font-family="Times,serif" font-size="14.00">Extend</text>
</g>
<!-- 98 -->
<g id="node13" class="node">
<title>98</title>
<polygon fill="#ffffff" fill-opacity="0.811765" stroke="black" points="967.37,-183.56 923,-196 878.63,-183.56 878.67,-163.44 967.33,-163.44 967.37,-183.56"/>
<text text-anchor="middle" x="923" y="-174.3" font-family="Times,serif" font-size="14.00">Decide</text>
</g>
<!-- 103 -->
<g id="node14" class="node">
<title>103</title>
<polygon fill="#ffffff" fill-opacity="0.811765" stroke="black" points="977.76,-111.56 923,-124 868.24,-111.56 868.29,-91.44 977.71,-91.44 977.76,-111.56"/>
<text text-anchor="middle" x="923" y="-102.3" font-family="Times,serif" font-size="14.00">Conclude</text>
</g>
<!-- 107 -->
<g id="node15" class="node">
<title>107</title>
<polygon fill="#ffffff" fill-opacity="0.811765" stroke="black" points="1074.55,-183.56 1033,-196 991.45,-183.56 991.49,-163.44 1074.51,-163.44 1074.55,-183.56"/>
<text text-anchor="middle" x="1033" y="-174.3" font-family="Times,serif" font-size="14.00">Divise</text>
</g>
<!-- 119 -->
<g id="node16" class="node">
<title>119</title>
<polygon fill="#ffffff" fill-opacity="0.811765" stroke="black" points="1153.13,-183.56 1126,-196 1098.87,-183.56 1098.89,-163.44 1153.11,-163.44 1153.13,-183.56"/>
<text text-anchor="middle" x="1126" y="-174.3" font-family="Times,serif" font-size="14.00">Alt</text>
</g>
<!-- 131 -->
<g id="node17" class="node">
<title>131</title>
<polygon fill="#ffffff" fill-opacity="0.811765" stroke="black" points="1158.27,-111.56 1126,-124 1093.73,-111.56 1093.76,-91.44 1158.24,-91.44 1158.27,-111.56"/>
<text text-anchor="middle" x="1126" y="-102.3" font-family="Times,serif" font-size="14.00">Plus</text>
</g>
</g>
</svg>
