<?xml version="1.0" encoding="UTF-8" standalone="no"?>
<!DOCTYPE svg PUBLIC "-//W3C//DTD SVG 1.1//EN"
 "http://www.w3.org/Graphics/SVG/1.1/DTD/svg11.dtd">
<!-- Generated by graphviz version 2.49.3 (0)
 -->
<!-- Title: calligraphy Pages: 1 -->
<svg width="657pt" height="474pt"
 viewBox="0.00 0.00 657.00 474.00" xmlns="http://www.w3.org/2000/svg" xmlns:xlink="http://www.w3.org/1999/xlink">
<g id="graph0" class="graph" transform="scale(1 1) rotate(0) translate(4 470)">
<title>calligraphy</title>
<polygon fill="white" stroke="transparent" points="-4,4 -4,-470 653,-470 653,4 -4,4"/>
<g id="clust1" class="cluster">
<title>cluster_module_0</title>
<polygon fill="none" stroke="black" points="8,-8 8,-458 489,-458 489,-8 8,-8"/>
<text text-anchor="middle" x="248.5" y="-442.8" font-family="Times,serif" font-size="14.00">Data.Functor.Alt</text>
</g>
<g id="clust2" class="cluster">
<title>cluster_0_0</title>
</g>
<g id="clust3" class="cluster">
<title>cluster_0_1</title>
</g>
<g id="clust4" class="cluster">
<title>cluster_0_2</title>
</g>
<g id="clust5" class="cluster">
<title>cluster_module_1</title>
<polygon fill="none" stroke="black" points="511,-80 511,-352 641,-352 641,-80 511,-80"/>
<text text-anchor="middle" x="576" y="-336.8" font-family="Times,serif" font-size="14.00">Data.Functor.Plus</text>
</g>
<g id="clust6" class="cluster">
<title>cluster_1_0</title>
</g>
<g id="clust7" class="cluster">
<title>cluster_1_1</title>
</g>
<!-- 0&#45;&gt;1 -->
<g id="edge1" class="edge">
<title>0&#45;&gt;1</title>
<path fill="none" stroke="black" stroke-dasharray="5,2" d="M364,-363.4C364,-344.57 364,-310.56 364,-290.05"/>
</g>
<!-- 0&#45;&gt;2 -->
<g id="edge4" class="edge">
<title>0&#45;&gt;2</title>
<path fill="none" stroke="black" stroke-dasharray="5,2" d="M386.92,-363.33C391.55,-359.97 396.18,-356.13 400,-352 437.06,-311.94 447.73,-298.68 462,-246 470.72,-213.83 467.69,-203.84 462,-171 459.64,-157.37 454.27,-142.66 449.69,-131.75"/>
</g>
<!-- 0&#45;&gt;5 -->
<g id="edge7" class="edge">
<title>0&#45;&gt;5</title>
<path fill="none" stroke="black" stroke-dasharray="5,2" d="M341.06,-363.35C336.42,-359.99 331.81,-356.15 328,-352 291.23,-311.97 281.03,-298.51 267,-246 247.96,-174.72 234.78,-146.37 267,-80 272.26,-69.16 282.4,-60.55 291.93,-54.37"/>
</g>
<!-- 0&#45;&gt;11 -->
<g id="edge23" class="edge">
<title>0&#45;&gt;11</title>
<path fill="none" stroke="black" stroke-dasharray="1,5" d="M326.74,-377.3C302.83,-375.59 272.54,-369.64 252,-352 210.2,-316.11 197.35,-247.43 193.54,-215.33"/>
<polygon fill="black" stroke="black" points="326.72,-380.8 336.88,-377.8 327.06,-373.81 326.72,-380.8"/>
</g>
<!-- 0&#45;&gt;12 -->
<g id="edge20" class="edge">
<title>0&#45;&gt;12</title>
<path fill="none" stroke="black" d="M401.79,-375.1C426.75,-372.47 459.46,-366.32 485,-352 513.69,-335.92 537.73,-304.91 550.08,-286.89"/>
<polygon fill="black" stroke="black" points="401.25,-371.64 391.6,-376.03 401.88,-378.61 401.25,-371.64"/>
</g>
<!-- 1&#45;&gt;3 -->
<g id="edge12" class="edge">
<title>1&#45;&gt;3</title>
<path fill="none" stroke="black" d="M380.32,-246.68C387.47,-236.04 395.66,-223.84 402.05,-214.31"/>
<polygon fill="black" stroke="black" points="377.3,-244.91 374.63,-255.16 383.11,-248.81 377.3,-244.91"/>
</g>
<!-- 1&#45;&gt;6 -->
<g id="edge16" class="edge">
<title>1&#45;&gt;6</title>
<path fill="none" stroke="black" d="M348.05,-246.74C341.11,-236.18 333.15,-224.08 326.89,-214.57"/>
<polygon fill="black" stroke="black" points="345.17,-248.73 353.58,-255.16 351.02,-244.88 345.17,-248.73"/>
</g>
<!-- 1&#45;&gt;11 -->
<g id="edge19" class="edge">
<title>1&#45;&gt;11</title>
<path fill="none" stroke="black" d="M326.85,-268.43C302.23,-265.52 269.83,-259.3 244,-246 228.93,-238.24 214.99,-224.9 205.35,-214.25"/>
<polygon fill="black" stroke="black" points="326.57,-271.92 336.88,-269.49 327.31,-264.96 326.57,-271.92"/>
</g>
<!-- 1&#45;&gt;14 -->
<g id="edge21" class="edge">
<title>1&#45;&gt;14</title>
<path fill="none" stroke="black" d="M401.1,-267.74C420.6,-264.57 444.1,-258.32 462,-246 495.63,-222.86 490.79,-203.86 515,-171 525.18,-157.18 537.09,-141.73 545.78,-130.56"/>
<polygon fill="black" stroke="black" points="400.44,-264.3 391.03,-269.17 401.43,-271.23 400.44,-264.3"/>
</g>
<!-- 2&#45;&gt;3 -->
<g id="edge2" class="edge">
<title>2&#45;&gt;3</title>
<path fill="none" stroke="black" stroke-dasharray="5,2" d="M441.48,-132.21C437.98,-146.21 430.92,-165.83 424.42,-179.61"/>
</g>
<!-- 2&#45;&gt;4 -->
<g id="edge3" class="edge">
<title>2&#45;&gt;4</title>
<path fill="none" stroke="black" stroke-dasharray="5,2" d="M432.26,-96.76C425.57,-85.62 416.72,-70.87 409.98,-59.63"/>
</g>
<!-- 3&#45;&gt;2 -->
<g id="edge11" class="edge">
<title>3&#45;&gt;2</title>
<path fill="none" stroke="black" d="M416.21,-169.17C420.08,-156.44 425.68,-141.68 430.87,-130.78"/>
<polygon fill="black" stroke="black" points="412.83,-168.25 413.51,-178.82 419.58,-170.13 412.83,-168.25"/>
</g>
<!-- 3&#45;&gt;4 -->
<g id="edge14" class="edge">
<title>3&#45;&gt;4</title>
<path fill="none" stroke="black" d="M394.73,-170.61C394.01,-168.07 393.43,-165.5 393,-163 386.79,-126.65 388.21,-83.2 392.65,-59.84"/>
<polygon fill="black" stroke="black" points="391.46,-171.88 398.1,-180.14 398.06,-169.54 391.46,-171.88"/>
</g>
<!-- 4&#45;&gt;3 -->
<g id="edge13" class="edge">
<title>4&#45;&gt;3</title>
<path fill="none" stroke="black" d="M405.18,-70.23C405.97,-94.7 405.62,-131.51 411,-163 411.89,-168.24 413.47,-173.77 414.8,-178.79"/>
<polygon fill="black" stroke="black" points="408.67,-70.08 404.73,-60.24 401.68,-70.39 408.67,-70.08"/>
</g>
<!-- 5&#45;&gt;6 -->
<g id="edge5" class="edge">
<title>5&#45;&gt;6</title>
<path fill="none" stroke="black" stroke-dasharray="5,2" d="M336.07,-54.37C345.6,-60.55 355.74,-69.16 361,-80 377.11,-113.19 377.67,-130.09 361,-163 356.8,-171.3 349.42,-178.01 341.84,-183.16"/>
</g>
<!-- 5&#45;&gt;7 -->
<g id="edge6" class="edge">
<title>5&#45;&gt;7</title>
<path fill="none" stroke="black" stroke-dasharray="5,2" d="M319.86,-59.79C321.04,-70.76 321.05,-85.05 319.88,-96.05"/>
</g>
<!-- 6&#45;&gt;7 -->
<g id="edge18" class="edge">
<title>6&#45;&gt;7</title>
<path fill="none" stroke="black" d="M308.9,-168.7C307.97,-156.5 307.9,-142.52 308.81,-131.88"/>
<polygon fill="black" stroke="black" points="305.44,-169.23 309.94,-178.82 312.4,-168.52 305.44,-169.23"/>
</g>
<!-- 7&#45;&gt;5 -->
<g id="edge15" class="edge">
<title>7&#45;&gt;5</title>
<path fill="none" stroke="black" d="M307.4,-85.85C307.06,-77.07 307.3,-67.59 308.14,-59.79"/>
<polygon fill="black" stroke="black" points="303.93,-86.33 308.12,-96.05 310.91,-85.83 303.93,-86.33"/>
</g>
<!-- 7&#45;&gt;6 -->
<g id="edge17" class="edge">
<title>7&#45;&gt;6</title>
<path fill="none" stroke="black" d="M321.07,-141.96C322.01,-154.12 322.1,-168.12 321.21,-178.82"/>
<polygon fill="black" stroke="black" points="324.54,-141.46 320.02,-131.88 317.57,-142.18 324.54,-141.46"/>
</g>
<!-- 8&#45;&gt;9 -->
<g id="edge9" class="edge">
<title>8&#45;&gt;9</title>
<path fill="none" stroke="black" stroke-dasharray="5,2" d="M70,-359.83C70,-340.56 70,-309.48 70,-290.2"/>
</g>
<!-- 9&#45;&gt;10 -->
<g id="edge8" class="edge">
<title>9&#45;&gt;10</title>
<path fill="none" stroke="black" stroke-dasharray="5,2" d="M70,-253.7C70,-242.06 70,-226.79 70,-215.18"/>
</g>
<!-- 12&#45;&gt;13 -->
<g id="edge10" class="edge">
<title>12&#45;&gt;13</title>
<path fill="none" stroke="black" stroke-dasharray="5,2" d="M558.62,-257.27C558.3,-245.29 557.82,-227.87 557.47,-215.01"/>
</g>
<!-- 12&#45;&gt;14 -->
<g id="edge24" class="edge">
<title>12&#45;&gt;14</title>
<path fill="none" stroke="black" stroke-dasharray="1,5" d="M590.64,-249.88C591.52,-248.64 592.32,-247.35 593,-246 608.05,-216.26 602.19,-203.04 593,-171 588.7,-156.01 579.09,-141.14 571.03,-130.5"/>
<polygon fill="black" stroke="black" points="588.03,-247.55 583.78,-257.26 593.15,-252.32 588.03,-247.55"/>
</g>
<!-- 13&#45;&gt;14 -->
<g id="edge22" class="edge">
<title>13&#45;&gt;14</title>
<path fill="none" stroke="black" d="M557.34,-168.77C557.49,-156.66 557.66,-142.78 557.79,-132.15"/>
<polygon fill="black" stroke="black" points="553.84,-168.78 557.21,-178.82 560.84,-168.87 553.84,-168.78"/>
</g>
<!-- 0 -->
<g id="node1" class="node">
<title>0</title>
<polygon fill="#ffffff" fill-opacity="0.811765" stroke="black" points="391.13,-383.56 364,-396 336.87,-383.56 336.89,-363.44 391.11,-363.44 391.13,-383.56"/>
<text text-anchor="middle" x="364" y="-374.3" font-family="Times,serif" font-size="14.00">Alt</text>
</g>
<!-- 1 -->
<g id="node2" class="node">
<title>1</title>
<ellipse fill="#ffffff" fill-opacity="0.811765" stroke="black" cx="364" cy="-272" rx="27" ry="18"/>
<text text-anchor="middle" x="364" y="-268.3" font-family="Times,serif" font-size="14.00">&lt;!&gt;</text>
</g>
<!-- 2 -->
<g id="node3" class="node">
<title>2</title>
<ellipse fill="#ffffff" fill-opacity="0.811765" stroke="black" cx="442" cy="-114" rx="30.59" ry="18"/>
<text text-anchor="middle" x="442" y="-110.3" font-family="Times,serif" font-size="14.00">many</text>
</g>
<!-- 3 -->
<g id="node4" class="node">
<title>3</title>
<ellipse fill="#ffffff" fill-opacity="0.811765" stroke="black" stroke-dasharray="5,2" cx="413" cy="-197" rx="39.79" ry="18"/>
<text text-anchor="middle" x="413" y="-193.3" font-family="Times,serif" font-size="14.00">many_v</text>
</g>
<!-- 4 -->
<g id="node5" class="node">
<title>4</title>
<ellipse fill="#ffffff" fill-opacity="0.811765" stroke="black" stroke-dasharray="5,2" cx="400" cy="-42" rx="38.19" ry="18"/>
<text text-anchor="middle" x="400" y="-38.3" font-family="Times,serif" font-size="14.00">some_v</text>
</g>
<!-- 5 -->
<g id="node6" class="node">
<title>5</title>
<ellipse fill="#ffffff" fill-opacity="0.811765" stroke="black" cx="314" cy="-42" rx="29.8" ry="18"/>
<text text-anchor="middle" x="314" y="-38.3" font-family="Times,serif" font-size="14.00">some</text>
</g>
<!-- 6 -->
<g id="node7" class="node">
<title>6</title>
<ellipse fill="#ffffff" fill-opacity="0.811765" stroke="black" stroke-dasharray="5,2" cx="316" cy="-197" rx="39.79" ry="18"/>
<text text-anchor="middle" x="316" y="-193.3" font-family="Times,serif" font-size="14.00">many_v</text>
</g>
<!-- 7 -->
<g id="node8" class="node">
<title>7</title>
<ellipse fill="#ffffff" fill-opacity="0.811765" stroke="black" stroke-dasharray="5,2" cx="314" cy="-114" rx="38.19" ry="18"/>
<text text-anchor="middle" x="314" y="-110.3" font-family="Times,serif" font-size="14.00">some_v</text>
</g>
<!-- 8 -->
<g id="node9" class="node">
<title>8</title>
<polygon fill="#ffffff" fill-opacity="0.811765" stroke="black" stroke-dasharray="5,2" points="106.66,-370.54 106.66,-385.46 85.19,-396 54.81,-396 33.34,-385.46 33.34,-370.54 54.81,-360 85.19,-360 106.66,-370.54"/>
<text text-anchor="middle" x="70" y="-374.3" font-family="Times,serif" font-size="14.00">Magic</text>
</g>
<!-- 9 -->
<g id="node10" class="node">
<title>9</title>
<polygon fill="#ffffff" fill-opacity="0.811765" stroke="black" stroke-dasharray="5,2" points="97,-290 43,-290 43,-254 97,-254 97,-290"/>
<text text-anchor="middle" x="70" y="-268.3" font-family="Times,serif" font-size="14.00">Magic</text>
</g>
<!-- 10 -->
<g id="node11" class="node">
<title>10</title>
<path fill="#ffffff" fill-opacity="0.811765" stroke="black" stroke-dasharray="5,2" d="M93,-215C93,-215 47,-215 47,-215 41,-215 35,-209 35,-203 35,-203 35,-191 35,-191 35,-185 41,-179 47,-179 47,-179 93,-179 93,-179 99,-179 105,-185 105,-191 105,-191 105,-203 105,-203 105,-209 99,-215 93,-215"/>
<text text-anchor="middle" x="70" y="-193.3" font-family="Times,serif" font-size="14.00">runMagic</text>
</g>
<!-- 11 -->
<g id="node12" class="node">
<title>11</title>
<ellipse fill="#ffffff" fill-opacity="0.811765" stroke="black" cx="192" cy="-197" rx="39.79" ry="18"/>
<text text-anchor="middle" x="192" y="-193.3" font-family="Times,serif" font-size="14.00">optional</text>
</g>
<!-- 12 -->
<g id="node13" class="node">
<title>12</title>
<polygon fill="#ffffff" fill-opacity="0.811765" stroke="black" points="591.27,-277.56 559,-290 526.73,-277.56 526.76,-257.44 591.24,-257.44 591.27,-277.56"/>
<text text-anchor="middle" x="559" y="-268.3" font-family="Times,serif" font-size="14.00">Plus</text>
</g>
<!-- 13 -->
<g id="node14" class="node">
<title>13</title>
<ellipse fill="#ffffff" fill-opacity="0.811765" stroke="black" cx="557" cy="-197" rx="27" ry="18"/>
<text text-anchor="middle" x="557" y="-193.3" font-family="Times,serif" font-size="14.00">zero</text>
</g>
<!-- 14 -->
<g id="node15" class="node">
<title>14</title>
<ellipse fill="#ffffff" fill-opacity="0.811765" stroke="black" cx="558" cy="-114" rx="30.59" ry="18"/>
<text text-anchor="middle" x="558" y="-110.3" font-family="Times,serif" font-size="14.00">psum</text>
</g>
</g>
</svg>
