<?xml version="1.0" encoding="UTF-8" standalone="no"?>
<!DOCTYPE svg PUBLIC "-//W3C//DTD SVG 1.1//EN"
 "http://www.w3.org/Graphics/SVG/1.1/DTD/svg11.dtd">
<!-- Generated by graphviz version 2.49.3 (0)
 -->
<!-- Title: calligraphy Pages: 1 -->
<svg width="461pt" height="410pt"
 viewBox="0.00 0.00 461.00 410.00" xmlns="http://www.w3.org/2000/svg" xmlns:xlink="http://www.w3.org/1999/xlink">
<g id="graph0" class="graph" transform="scale(1 1) rotate(0) translate(4 406)">
<title>calligraphy</title>
<polygon fill="white" stroke="transparent" points="-4,4 -4,-406 457,-406 457,4 -4,4"/>
<g id="clust1" class="cluster">
<title>cluster_module_0</title>
<polygon fill="none" stroke="black" points="8,-99 8,-394 295,-394 295,-99 8,-99"/>
<text text-anchor="middle" x="151.5" y="-378.8" font-family="Times,serif" font-size="14.00">Data.Functor.Alt</text>
</g>
<g id="clust2" class="cluster">
<title>cluster_0_0</title>
</g>
<g id="clust3" class="cluster">
<title>cluster_0_1</title>
</g>
<g id="clust4" class="cluster">
<title>cluster_module_1</title>
<polygon fill="none" stroke="black" points="315,-8 315,-288 445,-288 445,-8 315,-8"/>
<text text-anchor="middle" x="380" y="-272.8" font-family="Times,serif" font-size="14.00">Data.Functor.Plus</text>
</g>
<g id="clust5" class="cluster">
<title>cluster_1_0</title>
</g>
<g id="clust6" class="cluster">
<title>cluster_1_1</title>
</g>
<!-- 0&#45;&gt;1 -->
<g id="edge1" class="edge">
<title>0&#45;&gt;1</title>
<path fill="none" stroke="black" stroke-dasharray="5,2" d="M136,-299.4C136,-280.57 136,-246.56 136,-226.05"/>
</g>
<!-- 0&#45;&gt;2 -->
<g id="edge2" class="edge">
<title>0&#45;&gt;2</title>
<path fill="none" stroke="black" stroke-dasharray="5,2" d="M108.67,-305.43C99.55,-301.61 90.16,-296.03 84,-288 52.54,-246.99 51.8,-182.02 53.51,-151.25"/>
</g>
<!-- 0&#45;&gt;5 -->
<g id="edge3" class="edge">
<title>0&#45;&gt;5</title>
<path fill="none" stroke="black" stroke-dasharray="5,2" d="M109.43,-299.19C105.64,-296.04 102.26,-292.32 100,-288 79.81,-249.4 88.54,-232.02 100,-190 104.04,-175.19 113.1,-160.31 120.71,-149.62"/>
</g>
<!-- 0&#45;&gt;11 -->
<g id="edge11" class="edge">
<title>0&#45;&gt;11</title>
<path fill="none" stroke="black" stroke-dasharray="1,5" d="M168.01,-292.57C169.44,-291.11 170.79,-289.59 172,-288 204.62,-245.4 219.05,-181.76 224.37,-151.37"/>
<polygon fill="black" stroke="black" points="165.53,-290.09 160.27,-299.28 170.12,-295.37 165.53,-290.09"/>
</g>
<!-- 0&#45;&gt;12 -->
<g id="edge8" class="edge">
<title>0&#45;&gt;12</title>
<path fill="none" stroke="black" d="M173.22,-301.41C184.82,-297.49 197.56,-292.86 209,-288 259.61,-266.49 316.56,-235.36 344.92,-219.36"/>
<polygon fill="black" stroke="black" points="171.79,-298.19 163.39,-304.65 173.98,-304.84 171.79,-298.19"/>
</g>
<!-- 1&#45;&gt;2 -->
<g id="edge5" class="edge">
<title>1&#45;&gt;2</title>
<path fill="none" stroke="black" d="M106.21,-191.07C101.94,-188.28 97.74,-185.23 94,-182 83.11,-172.59 72.94,-159.88 65.71,-149.9"/>
<polygon fill="black" stroke="black" points="104.58,-194.18 114.94,-196.4 108.23,-188.2 104.58,-194.18"/>
</g>
<!-- 1&#45;&gt;5 -->
<g id="edge6" class="edge">
<title>1&#45;&gt;5</title>
<path fill="none" stroke="black" d="M134.87,-179.49C134.48,-169.98 134.05,-159.61 133.71,-151.18"/>
<polygon fill="black" stroke="black" points="131.38,-179.85 135.29,-189.7 138.38,-179.56 131.38,-179.85"/>
</g>
<!-- 1&#45;&gt;11 -->
<g id="edge7" class="edge">
<title>1&#45;&gt;11</title>
<path fill="none" stroke="black" d="M164.11,-189.83C167.84,-187.3 171.56,-184.65 175,-182 187.83,-172.09 201.26,-159.63 211.25,-149.9"/>
<polygon fill="black" stroke="black" points="161.96,-187.05 155.5,-195.44 165.79,-192.91 161.96,-187.05"/>
</g>
<!-- 1&#45;&gt;14 -->
<g id="edge9" class="edge">
<title>1&#45;&gt;14</title>
<path fill="none" stroke="black" d="M173.16,-205.35C213.24,-202.84 273.67,-196.67 291,-182 320.71,-156.84 300.67,-133.35 319,-99 326.96,-84.08 338.84,-68.97 348.09,-58.21"/>
<polygon fill="black" stroke="black" points="172.73,-201.87 162.94,-205.94 173.13,-208.86 172.73,-201.87"/>
</g>
<!-- 12&#45;&gt;13 -->
<g id="edge4" class="edge">
<title>12&#45;&gt;13</title>
<path fill="none" stroke="black" stroke-dasharray="5,2" d="M362.62,-193.27C362.3,-181.29 361.82,-163.87 361.47,-151.01"/>
</g>
<!-- 12&#45;&gt;14 -->
<g id="edge12" class="edge">
<title>12&#45;&gt;14</title>
<path fill="none" stroke="black" stroke-dasharray="1,5" d="M394.64,-185.88C395.52,-184.64 396.32,-183.35 397,-182 413.65,-149.08 407.17,-134.46 397,-99 392.7,-84.01 383.09,-69.14 375.03,-58.5"/>
<polygon fill="black" stroke="black" points="392.03,-183.55 387.78,-193.26 397.15,-188.32 392.03,-183.55"/>
</g>
<!-- 13&#45;&gt;14 -->
<g id="edge10" class="edge">
<title>13&#45;&gt;14</title>
<path fill="none" stroke="black" d="M361.31,-104.44C361.47,-89.95 361.67,-72.65 361.81,-60.11"/>
<polygon fill="black" stroke="black" points="357.81,-104.8 361.19,-114.84 364.81,-104.88 357.81,-104.8"/>
</g>
<!-- 0 -->
<g id="node1" class="node">
<title>0</title>
<polygon fill="#ffffff" fill-opacity="0.811765" stroke="black" points="163.13,-319.56 136,-332 108.87,-319.56 108.89,-299.44 163.11,-299.44 163.13,-319.56"/>
<text text-anchor="middle" x="136" y="-310.3" font-family="Times,serif" font-size="14.00">Alt</text>
</g>
<!-- 1 -->
<g id="node2" class="node">
<title>1</title>
<ellipse fill="#ffffff" fill-opacity="0.811765" stroke="black" cx="136" cy="-208" rx="27" ry="18"/>
<text text-anchor="middle" x="136" y="-204.3" font-family="Times,serif" font-size="14.00">&lt;!&gt;</text>
</g>
<!-- 2 -->
<g id="node3" class="node">
<title>2</title>
<ellipse fill="#ffffff" fill-opacity="0.811765" stroke="black" cx="55" cy="-133" rx="30.59" ry="18"/>
<text text-anchor="middle" x="55" y="-129.3" font-family="Times,serif" font-size="14.00">many</text>
</g>
<!-- 5 -->
<g id="node4" class="node">
<title>5</title>
<ellipse fill="#ffffff" fill-opacity="0.811765" stroke="black" cx="133" cy="-133" rx="29.8" ry="18"/>
<text text-anchor="middle" x="133" y="-129.3" font-family="Times,serif" font-size="14.00">some</text>
</g>
<!-- 11 -->
<g id="node5" class="node">
<title>11</title>
<ellipse fill="#ffffff" fill-opacity="0.811765" stroke="black" cx="227" cy="-133" rx="39.79" ry="18"/>
<text text-anchor="middle" x="227" y="-129.3" font-family="Times,serif" font-size="14.00">optional</text>
</g>
<!-- 12 -->
<g id="node6" class="node">
<title>12</title>
<polygon fill="#ffffff" fill-opacity="0.811765" stroke="black" points="395.27,-213.56 363,-226 330.73,-213.56 330.76,-193.44 395.24,-193.44 395.27,-213.56"/>
<text text-anchor="middle" x="363" y="-204.3" font-family="Times,serif" font-size="14.00">Plus</text>
</g>
<!-- 13 -->
<g id="node7" class="node">
<title>13</title>
<ellipse fill="#ffffff" fill-opacity="0.811765" stroke="black" cx="361" cy="-133" rx="27" ry="18"/>
<text text-anchor="middle" x="361" y="-129.3" font-family="Times,serif" font-size="14.00">zero</text>
</g>
<!-- 14 -->
<g id="node8" class="node">
<title>14</title>
<ellipse fill="#ffffff" fill-opacity="0.811765" stroke="black" cx="362" cy="-42" rx="30.59" ry="18"/>
<text text-anchor="middle" x="362" y="-38.3" font-family="Times,serif" font-size="14.00">psum</text>
</g>
</g>
</svg>
