<?xml version="1.0" encoding="UTF-8" standalone="no"?>
<!DOCTYPE svg PUBLIC "-//W3C//DTD SVG 1.1//EN"
 "http://www.w3.org/Graphics/SVG/1.1/DTD/svg11.dtd">
<!-- Generated by graphviz version 2.49.3 (0)
 -->
<!-- Title: calligraphy Pages: 1 -->
<svg width="294pt" height="343pt"
 viewBox="0.00 0.00 293.62 343.00" xmlns="http://www.w3.org/2000/svg" xmlns:xlink="http://www.w3.org/1999/xlink">
<g id="graph0" class="graph" transform="scale(1 1) rotate(0) translate(4 339)">
<title>calligraphy</title>
<polygon fill="white" stroke="transparent" points="-4,4 -4,-339 289.62,-339 289.62,4 -4,4"/>
<g id="clust1" class="cluster">
<title>cluster_module_0</title>
<polygon fill="none" stroke="black" points="8,-99 8,-327 132,-327 132,-99 8,-99"/>
<text text-anchor="middle" x="70" y="-311.8" font-family="Times,serif" font-size="14.00">Data.Functor.Alt</text>
</g>
<g id="clust2" class="cluster">
<title>cluster_0_0</title>
</g>
<g id="clust3" class="cluster">
<title>cluster_0_1</title>
</g>
<g id="clust4" class="cluster">
<title>cluster_module_1</title>
<polygon fill="none" stroke="black" points="140,-8 140,-213 270,-213 270,-8 140,-8"/>
<text text-anchor="middle" x="205" y="-197.8" font-family="Times,serif" font-size="14.00">Data.Functor.Plus</text>
</g>
<g id="clust5" class="cluster">
<title>cluster_1_0</title>
</g>
<g id="clust6" class="cluster">
<title>cluster_1_1</title>
</g>
<!-- 0&#45;&gt;11 -->
<g id="edge1" class="edge">
<title>0&#45;&gt;11</title>
<path fill="none" stroke="black" d="M86.22,-222.09C83.75,-200.77 80.19,-170.1 77.99,-151.15"/>
<polygon fill="black" stroke="black" points="82.78,-222.74 87.41,-232.27 89.73,-221.93 82.78,-222.74"/>
</g>
<!-- 0&#45;&gt;12 -->
<g id="edge2" class="edge">
<title>0&#45;&gt;12</title>
<path fill="none" stroke="black" d="M113.84,-225.64C118.62,-221.54 123.52,-217.2 128,-213 151.87,-190.6 177.97,-162.64 192.53,-146.7"/>
<polygon fill="black" stroke="black" points="111.41,-223.11 106.03,-232.24 115.93,-228.46 111.41,-223.11"/>
</g>
<!-- 0&#45;&gt;14 -->
<g id="edge3" class="edge">
<title>0&#45;&gt;14</title>
<path fill="none" stroke="black" d="M126.24,-244.47C172.82,-241.67 248.59,-233.96 266,-213 298.38,-174.03 284.74,-146.07 266,-99 259.07,-81.59 243.87,-66.47 231.51,-56.35"/>
<polygon fill="black" stroke="black" points="126.01,-240.97 116.21,-245.02 126.39,-247.96 126.01,-240.97"/>
</g>
<!-- 12&#45;&gt;14 -->
<g id="edge4" class="edge">
<title>12&#45;&gt;14</title>
<path fill="none" stroke="black" d="M206.43,-107.94C207.96,-92.84 209.89,-73.73 211.26,-60.16"/>
<polygon fill="black" stroke="black" points="202.93,-107.79 205.41,-118.09 209.89,-108.5 202.93,-107.79"/>
</g>
<!-- 0 -->
<g id="node1" class="node">
<title>0</title>
<polygon fill="#ffffff" fill-opacity="0.811765" stroke="black" points="116.13,-252.56 89,-265 61.87,-252.56 61.89,-232.44 116.11,-232.44 116.13,-252.56"/>
<text text-anchor="middle" x="89" y="-243.3" font-family="Times,serif" font-size="14.00">Alt</text>
</g>
<!-- 11 -->
<g id="node2" class="node">
<title>11</title>
<ellipse fill="#ffffff" fill-opacity="0.811765" stroke="black" cx="76" cy="-133" rx="39.79" ry="18"/>
<text text-anchor="middle" x="76" y="-129.3" font-family="Times,serif" font-size="14.00">optional</text>
</g>
<!-- 12 -->
<g id="node3" class="node">
<title>12</title>
<polygon fill="#ffffff" fill-opacity="0.811765" stroke="black" points="236.27,-138.56 204,-151 171.73,-138.56 171.76,-118.44 236.24,-118.44 236.27,-138.56"/>
<text text-anchor="middle" x="204" y="-129.3" font-family="Times,serif" font-size="14.00">Plus</text>
</g>
<!-- 14 -->
<g id="node4" class="node">
<title>14</title>
<ellipse fill="#ffffff" fill-opacity="0.811765" stroke="black" cx="213" cy="-42" rx="30.59" ry="18"/>
<text text-anchor="middle" x="213" y="-38.3" font-family="Times,serif" font-size="14.00">psum</text>
</g>
</g>
</svg>
