<?xml version="1.0" encoding="UTF-8" standalone="no"?>
<!DOCTYPE svg PUBLIC "-//W3C//DTD SVG 1.1//EN"
 "http://www.w3.org/Graphics/SVG/1.1/DTD/svg11.dtd">
<!-- Generated by graphviz version 2.49.3 (0)
 -->
<!-- Title: calligraphy Pages: 1 -->
<svg width="1118pt" height="396pt"
 viewBox="0.00 0.00 1118.00 396.00" xmlns="http://www.w3.org/2000/svg" xmlns:xlink="http://www.w3.org/1999/xlink">
<g id="graph0" class="graph" transform="scale(1 1) rotate(0) translate(4 392)">
<title>calligraphy</title>
<polygon fill="white" stroke="transparent" points="-4,4 -4,-392 1114,-392 1114,4 -4,4"/>
<g id="clust1" class="cluster">
<title>cluster_module_0</title>
<polygon fill="none" stroke="black" points="254,-8 254,-266 476,-266 476,-8 254,-8"/>
<text text-anchor="middle" x="365" y="-250.8" font-family="Times,serif" font-size="14.00">Data.Semigroup.Traversable.Class</text>
</g>
<g id="clust2" class="cluster">
<title>cluster_0_0</title>
</g>
<g id="clust3" class="cluster">
<title>cluster_module_1</title>
<polygon fill="none" stroke="black" points="484,-80 484,-380 1102,-380 1102,-80 484,-80"/>
<text text-anchor="middle" x="793" y="-364.8" font-family="Times,serif" font-size="14.00">Data.Semigroup.Foldable.Class</text>
</g>
<g id="clust4" class="cluster">
<title>cluster_1_0</title>
</g>
<g id="clust5" class="cluster">
<title>cluster_1_1</title>
</g>
<g id="clust6" class="cluster">
<title>cluster_1_2</title>
</g>
<g id="clust7" class="cluster">
<title>cluster_module_2</title>
<polygon fill="none" stroke="black" points="8,-8 8,-266 246,-266 246,-8 8,-8"/>
<text text-anchor="middle" x="127" y="-250.8" font-family="Times,serif" font-size="14.00">Data.Functor.Bind.Class</text>
</g>
<g id="clust8" class="cluster">
<title>cluster_2_0</title>
</g>
<!-- 6&#45;&gt;7 -->
<g id="edge1" class="edge">
<title>6&#45;&gt;7</title>
<path fill="none" stroke="black" stroke-dasharray="5,2" d="M369.96,-171.17C359.14,-159.7 343.74,-143.36 332.33,-131.26"/>
</g>
<!-- 6&#45;&gt;8 -->
<g id="edge2" class="edge">
<title>6&#45;&gt;8</title>
<path fill="none" stroke="black" stroke-dasharray="5,2" d="M385.23,-171.26C387.95,-150.04 390.26,-108.73 373,-80 366.7,-69.51 356.15,-61.4 345.89,-55.49"/>
</g>
<!-- 7&#45;&gt;8 -->
<g id="edge13" class="edge">
<title>7&#45;&gt;8</title>
<path fill="none" stroke="black" d="M310.41,-86.01C310.06,-77.36 310.29,-68.03 311.09,-60.28"/>
<polygon fill="black" stroke="black" points="306.92,-86.33 311.12,-96.05 313.91,-85.83 306.92,-86.33"/>
</g>
<!-- 8&#45;&gt;7 -->
<g id="edge11" class="edge">
<title>8&#45;&gt;7</title>
<path fill="none" stroke="black" d="M323.61,-70.36C323.94,-79.03 323.7,-88.35 322.88,-96.05"/>
<polygon fill="black" stroke="black" points="327.09,-70.01 322.91,-60.28 320.11,-70.49 327.09,-70.01"/>
</g>
<!-- 32&#45;&gt;6 -->
<g id="edge10" class="edge">
<title>32&#45;&gt;6</title>
<path fill="none" stroke="black" d="M517.08,-281.16C507.31,-276.6 497.13,-271.44 488,-266 454.88,-246.26 419.73,-218.16 399.66,-201.33"/>
<polygon fill="black" stroke="black" points="515.71,-284.39 526.26,-285.34 518.61,-278.01 515.71,-284.39"/>
</g>
<!-- 32&#45;&gt;33 -->
<g id="edge3" class="edge">
<title>32&#45;&gt;33</title>
<path fill="none" stroke="black" stroke-dasharray="5,2" d="M557.67,-285.17C552.09,-252.07 537.99,-168.38 531.89,-132.15"/>
</g>
<!-- 32&#45;&gt;34 -->
<g id="edge4" class="edge">
<title>32&#45;&gt;34</title>
<path fill="none" stroke="black" stroke-dasharray="5,2" d="M568.95,-285.27C582.35,-264.71 607.6,-225.97 622.07,-203.77"/>
</g>
<!-- 32&#45;&gt;35 -->
<g id="edge5" class="edge">
<title>32&#45;&gt;35</title>
<path fill="none" stroke="black" stroke-dasharray="5,2" d="M559.03,-285.12C557.89,-260.21 558.24,-206.88 578,-168 585.57,-153.11 599.01,-140.03 610.71,-130.6"/>
</g>
<!-- 34&#45;&gt;33 -->
<g id="edge15" class="edge">
<title>34&#45;&gt;33</title>
<path fill="none" stroke="black" d="M602.2,-164.27C584.71,-152.49 563.35,-138.12 548.23,-127.94"/>
<polygon fill="black" stroke="black" points="600.69,-167.47 610.94,-170.15 604.6,-161.67 600.69,-167.47"/>
</g>
<!-- 34&#45;&gt;35 -->
<g id="edge18" class="edge">
<title>34&#45;&gt;35</title>
<path fill="none" stroke="black" d="M633,-157.67C633,-149.05 633,-139.79 633,-132.1"/>
<polygon fill="black" stroke="black" points="629.5,-157.7 633,-167.7 636.5,-157.7 629.5,-157.7"/>
</g>
<!-- 37&#45;&gt;34 -->
<g id="edge16" class="edge">
<title>37&#45;&gt;34</title>
<path fill="none" stroke="black" d="M932.76,-282.11C859.46,-258.85 729.52,-217.62 667.63,-197.99"/>
<polygon fill="black" stroke="black" points="932.13,-285.58 942.72,-285.27 934.24,-278.91 932.13,-285.58"/>
</g>
<!-- 38&#45;&gt;34 -->
<g id="edge17" class="edge">
<title>38&#45;&gt;34</title>
<path fill="none" stroke="black" d="M747.31,-276.53C719.34,-254.62 677.53,-221.88 652.99,-202.66"/>
<polygon fill="black" stroke="black" points="745.48,-279.54 755.51,-282.95 749.8,-274.03 745.48,-279.54"/>
</g>
<!-- 70&#45;&gt;7 -->
<g id="edge12" class="edge">
<title>70&#45;&gt;7</title>
<path fill="none" stroke="black" d="M219.83,-166.53C241.93,-154.81 270.09,-139.88 290.4,-129.11"/>
<polygon fill="black" stroke="black" points="217.96,-163.56 210.76,-171.34 221.24,-169.74 217.96,-163.56"/>
</g>
<!-- 70&#45;&gt;8 -->
<g id="edge14" class="edge">
<title>70&#45;&gt;8</title>
<path fill="none" stroke="black" d="M198.05,-162.34C211.78,-139.75 234.98,-104.93 261,-80 270.25,-71.13 281.9,-63.05 292.16,-56.72"/>
<polygon fill="black" stroke="black" points="194.88,-160.82 192.76,-171.21 200.89,-164.41 194.88,-160.82"/>
</g>
<!-- 70&#45;&gt;71 -->
<g id="edge6" class="edge">
<title>70&#45;&gt;71</title>
<path fill="none" stroke="black" stroke-dasharray="5,2" d="M185.18,-171.27C184.92,-150.41 182.27,-110 167,-80 162.45,-71.05 154.99,-62.85 148.04,-56.46"/>
</g>
<!-- 70&#45;&gt;72 -->
<g id="edge7" class="edge">
<title>70&#45;&gt;72</title>
<path fill="none" stroke="black" stroke-dasharray="5,2" d="M186.73,-171.38C190.02,-145.42 197.18,-88.89 200.81,-60.29"/>
</g>
<!-- 70&#45;&gt;73 -->
<g id="edge8" class="edge">
<title>70&#45;&gt;73</title>
<path fill="none" stroke="black" stroke-dasharray="5,2" d="M174.33,-171.17C165.23,-159.38 152.17,-142.45 142.77,-130.26"/>
</g>
<!-- 70&#45;&gt;74 -->
<g id="edge9" class="edge">
<title>70&#45;&gt;74</title>
<path fill="none" stroke="black" stroke-dasharray="5,2" d="M151.18,-171.26C132.64,-162.33 110.37,-149.15 95,-132 76.12,-110.93 64.85,-79.47 59.3,-60.15"/>
</g>
<!-- 73&#45;&gt;71 -->
<g id="edge19" class="edge">
<title>73&#45;&gt;71</title>
<path fill="none" stroke="black" d="M131,-85.67C131,-77.05 131,-67.79 131,-60.1"/>
<polygon fill="black" stroke="black" points="127.5,-85.7 131,-95.7 134.5,-85.7 127.5,-85.7"/>
</g>
<!-- 73&#45;&gt;72 -->
<g id="edge20" class="edge">
<title>73&#45;&gt;72</title>
<path fill="none" stroke="black" d="M153.04,-91.57C164.45,-80.48 178.07,-67.24 188.2,-57.38"/>
<polygon fill="black" stroke="black" points="150.3,-89.35 145.57,-98.83 155.18,-94.37 150.3,-89.35"/>
</g>
<!-- 73&#45;&gt;74 -->
<g id="edge22" class="edge">
<title>73&#45;&gt;74</title>
<path fill="none" stroke="black" d="M104.66,-94.31C91.58,-83.21 76.56,-69.28 66.34,-58.74"/>
<polygon fill="black" stroke="black" points="102.56,-97.12 112.49,-100.81 107.03,-91.73 102.56,-97.12"/>
</g>
<!-- 74&#45;&gt;73 -->
<g id="edge21" class="edge">
<title>74&#45;&gt;73</title>
<path fill="none" stroke="black" d="M82.18,-62.41C95.15,-73.46 109.85,-87.12 119.85,-97.46"/>
<polygon fill="black" stroke="black" points="84.32,-59.63 74.39,-55.91 79.84,-65 84.32,-59.63"/>
</g>
<!-- 6 -->
<g id="node1" class="node">
<title>6</title>
<polygon fill="#ffffff" fill-opacity="0.811765" stroke="black" points="452.79,-191.56 383,-204 313.21,-191.56 313.28,-171.44 452.72,-171.44 452.79,-191.56"/>
<text text-anchor="middle" x="383" y="-182.3" font-family="Times,serif" font-size="14.00">Traversable1</text>
</g>
<!-- 7 -->
<g id="node2" class="node">
<title>7</title>
<ellipse fill="#ffffff" fill-opacity="0.811765" stroke="black" cx="317" cy="-114" rx="47.39" ry="18"/>
<text text-anchor="middle" x="317" y="-110.3" font-family="Times,serif" font-size="14.00">sequence1</text>
</g>
<!-- 8 -->
<g id="node3" class="node">
<title>8</title>
<ellipse fill="#ffffff" fill-opacity="0.811765" stroke="black" cx="317" cy="-42" rx="42.79" ry="18"/>
<text text-anchor="middle" x="317" y="-38.3" font-family="Times,serif" font-size="14.00">traverse1</text>
</g>
<!-- 32 -->
<g id="node4" class="node">
<title>32</title>
<polygon fill="#ffffff" fill-opacity="0.811765" stroke="black" points="617.08,-305.56 560,-318 502.92,-305.56 502.97,-285.44 617.03,-285.44 617.08,-305.56"/>
<text text-anchor="middle" x="560" y="-296.3" font-family="Times,serif" font-size="14.00">Foldable1</text>
</g>
<!-- 33 -->
<g id="node5" class="node">
<title>33</title>
<ellipse fill="#ffffff" fill-opacity="0.811765" stroke="black" cx="529" cy="-114" rx="29.5" ry="18"/>
<text text-anchor="middle" x="529" y="-110.3" font-family="Times,serif" font-size="14.00">fold1</text>
</g>
<!-- 34 -->
<g id="node6" class="node">
<title>34</title>
<ellipse fill="#ffffff" fill-opacity="0.811765" stroke="black" cx="633" cy="-186" rx="46.29" ry="18"/>
<text text-anchor="middle" x="633" y="-182.3" font-family="Times,serif" font-size="14.00">foldMap1</text>
</g>
<!-- 35 -->
<g id="node7" class="node">
<title>35</title>
<ellipse fill="#ffffff" fill-opacity="0.811765" stroke="black" cx="633" cy="-114" rx="56.59" ry="18"/>
<text text-anchor="middle" x="633" y="-110.3" font-family="Times,serif" font-size="14.00">toNonEmpty</text>
</g>
<!-- 37 -->
<g id="node8" class="node">
<title>37</title>
<ellipse fill="#ffffff" fill-opacity="0.811765" stroke="black" stroke-dasharray="5,2" cx="986" cy="-300" rx="74.19" ry="18"/>
<text text-anchor="middle" x="986" y="-296.3" font-family="Times,serif" font-size="14.00">getOptionCompat</text>
</g>
<!-- 38 -->
<g id="node9" class="node">
<title>38</title>
<ellipse fill="#ffffff" fill-opacity="0.811765" stroke="black" stroke-dasharray="5,2" cx="776" cy="-300" rx="61.99" ry="18"/>
<text text-anchor="middle" x="776" y="-296.3" font-family="Times,serif" font-size="14.00">optionCompat</text>
</g>
<!-- 70 -->
<g id="node10" class="node">
<title>70</title>
<polygon fill="#ffffff" fill-opacity="0.811765" stroke="black" points="225.34,-191.56 185,-204 144.66,-191.56 144.7,-171.44 225.3,-171.44 225.34,-191.56"/>
<text text-anchor="middle" x="185" y="-182.3" font-family="Times,serif" font-size="14.00">Apply</text>
</g>
<!-- 71 -->
<g id="node11" class="node">
<title>71</title>
<ellipse fill="#ffffff" fill-opacity="0.811765" stroke="black" cx="131" cy="-42" rx="27" ry="18"/>
<text text-anchor="middle" x="131" y="-38.3" font-family="Times,serif" font-size="14.00">.&gt;</text>
</g>
<!-- 72 -->
<g id="node12" class="node">
<title>72</title>
<ellipse fill="#ffffff" fill-opacity="0.811765" stroke="black" cx="203" cy="-42" rx="27" ry="18"/>
<text text-anchor="middle" x="203" y="-38.3" font-family="Times,serif" font-size="14.00">&lt;.</text>
</g>
<!-- 73 -->
<g id="node13" class="node">
<title>73</title>
<ellipse fill="#ffffff" fill-opacity="0.811765" stroke="black" cx="131" cy="-114" rx="27" ry="18"/>
<text text-anchor="middle" x="131" y="-110.3" font-family="Times,serif" font-size="14.00">&lt;.&gt;</text>
</g>
<!-- 74 -->
<g id="node14" class="node">
<title>74</title>
<ellipse fill="#ffffff" fill-opacity="0.811765" stroke="black" cx="55" cy="-42" rx="30.59" ry="18"/>
<text text-anchor="middle" x="55" y="-38.3" font-family="Times,serif" font-size="14.00">liftF2</text>
</g>
</g>
</svg>
